:FULLY-SPECIFIED
:FORCE-ALL-JOINTS-BE-3DOF
:DEGREES
713
root 5.52025 21.4223 7.37156 -42.0719 -88.7864 58.3985
lfemur -35.0525 -12.216 10.1234
ltibia 72.6622 -0 0
lfoot 6.33084 -8.28016 -0.027987
ltoes 30.6602 -0 0
rfemur -31.4656 -1.36783 -0.444437
rtibia 84.6734 -0 0
rfoot 20.1305 -19.3231 -0.0360731
rtoes 38.5106 -0 0
lowerback 5.9871 -0.760794 -1.81892
upperback -1.30354 -1.24543 -1.62111
thorax -4.70844 -0.596333 -0.533754
lowerneck -6.84643 -6.17797 -2.18143
upperneck -0.135004 -8.22012 4.84653
head 1.43417 -4.04412 1.60727
lclavicle 0 0 0
lhumerus 1.52392 -20.4014 15.5493
lradius 47.0403 -0 0
lwrist 23.9781 0 0
lhand -21.7041 -3.15842 0.00219836
lfingers 0 -0 0
lthumb 4.69443 26.7681 0.00199367
rclavicle 0 0 0
rhumerus -12.3875 -3.60444 -25.8824
rradius 99.3617 -0 0
rwrist -9.60071 0 0
rhand -28.3885 -35.6321 0.0687621
rfingers 0 -0 0
rthumb -1.76093 -65.5862 0.0654037
714
root 5.50561 21.4759 7.58379 -115.926 -88.5643 132.306
lfemur -34.3148 -13.3579 9.33104
ltibia 68.8931 -0 0
lfoot 6.88268 -8.86122 -0.0167911
ltoes 30.247 -0 0
rfemur -32.6509 -1.46973 -1.18274
rtibia 90.8428 -0 0
rfoot 20.7471 -19.9933 -0.0216421
rtoes 40.7207 -0 0
lowerback 5.99182 -0.657098 -1.79697
upperback -1.3137 -1.1043 -1.59441
thorax -4.72197 -0.526408 -0.532161
lowerneck -6.86461 -6.31485 -2.30723
upperneck -0.284318 -8.38969 4.87293
head 1.40242 -4.13131 1.63123
lclavicle 0 0 0
lhumerus -0.124334 -20.3283 16.0875
lradius 45.8462 -0 0
lwrist 23.2582 0 0
lhand -21.9616 -3.25625 0.00131901
lfingers 0 -0 0
lthumb 4.4458 26.6762 0.0011962
rclavicle 0 0 0
rhumerus -11.6146 -2.72973 -26.7253
rradius 99.309 -0 0
rwrist -9.73524 0 0
rhand -27.4714 -34.7733 0.0412507
rfingers 0 -0 0
rthumb -0.875215 -64.7404 0.0392362
715
root 5.49097 21.5295 7.79601 -140.605 -87.2103 157.04
lfemur -33.5571 -14.4896 8.51967
ltibia 65.1241 0 0
lfoot 7.43438 -9.44215 0
ltoes 29.8338 0 0
rfemur -33.8349 -1.58686 -1.91882
rtibia 97.0122 0 0
rfoot 21.3635 -20.6634 0
rtoes 42.9309 0 0
lowerback 5.99658 -0.553404 -1.77502
upperback -1.3238 -0.963173 -1.56773
thorax -4.7355 -0.456483 -0.530585
lowerneck -6.88249 -6.45178 -2.43303
upperneck -0.433777 -8.5592 4.89979
head 1.37063 -4.21848 1.65523
lclavicle 1.2921e-14 3.18055e-14 0
lhumerus -1.77093 -20.2407 16.623
lradius 44.6521 0 0
lwrist 22.5382 0 0
lhand -22.2191 -3.35407 0
lfingers 7.12502 0 0
lthumb 4.19717 26.5843 0
rclavicle 1.2921e-14 3.18055e-14 0
rhumerus -10.8552 -1.84384 -27.5558
rradius 99.2563 0 0
rwrist -9.86977 0 0
rhand -26.5547 -33.9151 0
rfingers 7.12502 0 0
rthumb 0.0100137 -783.895 0
716
root 5.45921 21.4697 8.01284 -151.089 -85.404 167.843
lfemur -32.9161 -15.2397 8.06042
ltibia 61.3588 -0 0
lfoot 7.83518 -10.8802 -0.0302407
ltoes 29.3249 -0 0
rfemur -33.8897 -2.90217 -2.93522
rtibia 101.294 -0 0
rfoot 21.8596 -20.4474 0.00561106
rtoes 43.5328 -0 0
lowerback 5.67381 -0.280771 -1.63573
upperback -1.42396 -0.58076 -1.55031
thorax -4.65371 -0.270521 -0.621902
lowerneck -6.96806 -6.57501 -2.53607
upperneck -0.605909 -8.71153 4.85387
head 1.33843 -4.2979 1.6516
lclavicle -0 0 0
lhumerus -3.81191 -20.3023 17.2391
lradius 44.616 -0 0
lwrist 22.6 0 0
lhand -22.4469 -3.43217 0.000931796
lfingers 0 -0 0
lthumb 3.97714 26.5097 0.00085895
rclavicle -0 0 0
rhumerus -9.70069 -1.3436 -27.6988
rradius 99.3178 -0 0
rwrist -10.0409 0 0
rhand -26.1546 -33.2382 0.0141891
rfingers 0 -0 0
rthumb 0.396459 -63.2156 0.0137538
717
root 5.42744 21.41 8.22967 -155.498 -83.5293 172.572
lfemur -32.2665 -15.9848 7.59079
ltibia 57.5935 -0 0
lfoot 8.23661 -12.3185 -0.0504126
ltoes 28.8161 -0 0
rfemur -33.9212 -4.21824 -3.95181
rtibia 105.577 -0 0
rfoot 22.3556 -20.2314 0.00935204
rtoes 44.1347 -0 0
lowerback 5.35171 -0.0073586 -1.49799
upperback -1.524 -0.198318 -1.53355
thorax -4.57221 -0.0844294 -0.712953
lowerneck -7.05343 -6.6984 -2.63895
upperneck -0.777987 -8.86399 4.80839
head 1.30623 -4.37732 1.64801
lclavicle -0 0 0
lhumerus -5.85415 -20.3433 17.8574
lradius 44.5799 -0 0
lwrist 22.6617 0 0
lhand -22.6748 -3.51028 0.001553
lfingers 0 -0 0
lthumb 3.75712 26.4352 0.00143159
rclavicle -0 0 0
rhumerus -8.54762 -0.840582 -27.8316
rradius 99.3793 -0 0
rwrist -10.2121 0 0
rhand -25.7543 -32.5613 0.02365
rfingers 0 -0 0
rthumb 0.78304 -62.5362 0.0229245
718
root 5.39568 21.3502 8.4465 -157.847 -81.6321 175.241
lfemur -31.6082 -16.7247 7.11059
ltibia 53.8282 -0 0
lfoot 8.63842 -13.7568 -0.060502
ltoes 28.3072 -0 0
rfemur -33.9293 -5.53466 -4.96967
rtibia 109.859 -0 0
rfoot 22.8517 -20.0154 0.0112226
rtoes 44.7366 -0 0
lowerback 5.03027 0.266823 -1.36178
upperback -1.62393 0.184153 -1.51746
thorax -4.49102 0.101791 -0.803739
lowerneck -7.1386 -6.82193 -2.74167
upperneck -0.950015 -9.01658 4.76335
head 1.27403 -4.45674 1.64446
lclavicle -0 0 0
lhumerus -7.89716 -20.3636 18.477
lradius 44.5438 -0 0
lwrist 22.7235 0 0
lhand -22.9026 -3.58839 0.00186361
lfingers 0 -0 0
lthumb 3.53709 26.3606 0.00171791
rclavicle -0 0 0
rhumerus -7.39583 -0.334996 -27.9542
rradius 99.4408 -0 0
rwrist -10.3833 0 0
rhand -25.3539 -31.8843 0.0283809
rfingers 0 -0 0
rthumb 1.1697 -61.8567 0.0275102
719
root 5.36392 21.2905 8.66332 -159.267 -79.7248 176.983
lfemur -30.9407 -17.4592 6.61959
ltibia 50.0629 -0 0
lfoot 9.04036 -15.1952 -0.060502
ltoes 27.7984 -0 0
rfemur -33.9138 -6.85102 -5.98988
rtibia 114.141 -0 0
rfoot 23.3478 -19.7993 0.0112226
rtoes 45.3386 -0 0
lowerback 4.70946 0.541764 -1.22711
upperback -1.72375 0.566652 -1.50204
thorax -4.41011 0.288141 -0.894262
lowerneck -7.22356 -6.94562 -2.84423
upperneck -1.122 -9.16931 4.71876
head 1.24183 -4.53616 1.64096
lclavicle -0 0 0
lhumerus -9.9404 -20.3631 19.097
lradius 44.5076 -0 0
lwrist 22.7853 0 0
lhand -23.1305 -3.66649 0.00186361
lfingers 0 -0 0
lthumb 3.31706 26.2861 0.00171791
rclavicle -0 0 0
rhumerus -6.24513 0.172952 -28.0667
rradius 99.5023 -0 0
rwrist -10.5544 0 0
rhand -24.9536 -31.2072 0.0283809
rfingers 0 -0 0
rthumb 1.55639 -61.1773 0.0275102
720
root 5.33216 21.2307 8.88015 -160.193 -77.8123 178.231
lfemur -30.2638 -18.1882 6.11761
ltibia 46.2976 -0 0
lfoot 9.44217 -16.6336 -0.0504126
ltoes 27.2895 -0 0
rfemur -33.8746 -8.1669 -7.01355
rtibia 118.423 -0 0
rfoot 23.8439 -19.5833 0.00935204
rtoes 45.9405 -0 0
lowerback 4.38929 0.817454 -1.09397
upperback -1.82349 0.949176 -1.48729
thorax -4.3295 0.474617 -0.984524
lowerneck -7.30833 -7.06946 -2.94663
upperneck -1.29393 -9.32217 4.67462
head 1.20963 -4.61558 1.63751
lclavicle -0 0 0
lhumerus -11.9834 -20.3419 19.7166
lradius 44.4715 -0 0
lwrist 22.8471 0 0
lhand -23.3583 -3.7446 0.001553
lfingers 0 -0 0
lthumb 3.09703 26.2115 0.00143159
rclavicle -0 0 0
rhumerus -5.09536 0.683055 -28.169
rradius 99.5638 -0 0
rwrist -10.7256 0 0
rhand -24.5532 -30.5302 0.02365
rfingers 0 -0 0
rthumb 1.94305 -60.4978 0.0229245
721
root 5.30039 21.171 9.09698 -160.824 -75.8966 179.185
lfemur -29.5774 -18.9114 5.60442
ltibia 42.5323 -0 0
lfoot 9.8436 -18.0718 -0.0302407
ltoes 26.7807 -0 0
rfemur -33.8115 -9.48187 -8.04178
rtibia 122.706 -0 0
rfoot 24.3399 -19.3673 0.00561106
rtoes 46.5424 -0 0
lowerback 4.06973 1.09388 -0.962364
upperback -1.92313 1.33173 -1.4732
thorax -4.24918 0.66122 -1.07453
lowerneck -7.39289 -7.19345 -3.04888
upperneck -1.46582 -9.47516 4.63092
head 1.17743 -4.69501 1.6341
lclavicle -0 0 0
lhumerus -14.0256 -20.3001 20.3348
lradius 44.4354 -0 0
lwrist 22.9088 0 0
lhand -23.5862 -3.82271 0.000931796
lfingers 0 -0 0
lthumb 2.87701 26.137 0.00085895
rclavicle -0 0 0
rhumerus -3.94633 1.19511 -28.261
rradius 99.6253 -0 0
rwrist -10.8967 0 0
rhand -24.1529 -29.8533 0.0141891
rfingers 0 -0 0
rthumb 2.32964 -59.8184 0.0137538
